<svg xmlns="http://www.w3.org/2000/svg" viewBox="0 0 579.75 144"><defs><style>.cls-1{fill:#231f20;}.cls-2{fill:#006998;}.cls-3{fill:#fff;}</style></defs><title>Asset 1</title><g id="Layer_2" data-name="Layer 2"><g id="Layer_1-2" data-name="Layer 1"><polygon class="cls-1" points="0 21.3 22.21 21.3 22.21 102.21 63.34 102.21 63.34 122.7 0 122.7 0 21.3"/><path class="cls-1" d="M73.15,54H94.51v68.72H73.15ZM83.83,19.79A12.38,12.38,0,1,1,71.45,32.17,12.39,12.39,0,0,1,83.83,19.79"/><polygon class="cls-1" points="183.75 21.29 205.1 21.29 205.1 81.9 229.28 53.92 255.44 53.92 227.44 85.74 254.86 122.7 228.03 122.7 205.38 88.73 205.1 88.73 205.1 122.7 183.75 122.7 183.75 21.29"/><path class="cls-1" d="M106.31,54h20.49v9.39h.29c2.84-5.41,9.82-11.1,20.21-11.1,21.64,0,25.62,14.23,25.62,32.73v37.69H151.57V89.26c0-8-.15-18.22-11.11-18.22s-12.8,8.68-12.8,17.65v34H106.31Z"/><path class="cls-1" d="M300.39,80.33a12.8,12.8,0,0,0-13.1-13.1c-9.39,0-14.52,6.4-15.08,13.1Zm18.07,30.45c-6.83,8.68-18.07,13.67-29.18,13.67-21.35,0-38.43-14.24-38.43-36.3s17.08-36.29,38.43-36.29c19.94,0,32.46,14.23,32.46,36.29v6.69H272.2c1.7,8.11,7.83,13.38,16.08,13.38,7,0,11.67-3.56,15.23-8.4Z"/><path class="cls-1" d="M366.2,70.57c-10.67,0-17.07,7.12-17.07,17.5s6.4,17.51,17.07,17.51,17.09-7.11,17.09-17.51-6.41-17.5-17.09-17.5m36.74,52.09H383.29v-9.11H383c-3.28,5-11.53,10.82-21.21,10.82-20.5,0-34-14.8-34-35.72,0-19.22,12-36.87,31.6-36.87,8.83,0,17.09,2.42,21.93,9.11h.28V21.29h21.36Z"/><path class="cls-2" d="M557.63,0H434.92a10.51,10.51,0,0,0-10.63,10.38V133.61A10.52,10.52,0,0,0,434.92,144H557.63a10.54,10.54,0,0,0,10.66-10.39V10.38A10.53,10.53,0,0,0,557.63,0Z"/><path class="cls-3" d="M445.64,54H467v68.72H445.64Zm10.68-34.16a12.38,12.38,0,1,1-12.39,12.38,12.39,12.39,0,0,1,12.39-12.38"/><path class="cls-3" d="M480.39,54h20.49v9.39h.29C504,58,511,52.28,521.37,52.28,543,52.28,547,66.51,547,85v37.69H525.65V89.29c0-8-.15-18.22-11.1-18.22-11.11,0-12.82,8.68-12.82,17.64v34H480.39Z"/><polygon class="cls-1" points="571.8 119.09 572.96 119.09 572.96 122.71 573.59 122.71 573.59 119.09 574.75 119.09 574.75 118.46 571.8 118.46 571.8 119.09"/><polygon class="cls-1" points="578.85 118.46 577.61 121.58 576.38 118.46 575.48 118.46 575.48 122.71 576.11 122.71 576.11 119.48 577.4 122.71 577.82 122.71 579.12 119.48 579.12 122.71 579.75 122.71 579.75 118.46 578.85 118.46"/></g></g></svg>